<?xml version="1.0" encoding="utf-8"?>
<!-- Generator: Adobe Illustrator 21.0.2, SVG Export Plug-In . SVG Version: 6.00 Build 0)  -->
<svg version="1.1" id="Capa_1" xmlns="http://www.w3.org/2000/svg" xmlns:xlink="http://www.w3.org/1999/xlink" x="0px" y="0px"
	 viewBox="0 0 512 512" style="enable-background:new 0 0 512 512;" xml:space="preserve">
<g>
	<g>
		<path d="M452.085,177.514h-50.154c9.489-9.879,14.715-22.809,14.715-36.549c0-14.105-5.493-27.365-15.467-37.338
			c-9.973-9.973-23.234-15.466-37.338-15.466c-3.982,0-7.892,0.453-11.685,1.306c0.837-3.78,1.282-7.682,1.282-11.659
			c0-29.117-23.687-52.805-52.804-52.805c-18.767,0-35.267,9.849-44.634,24.641c-9.367-14.792-25.867-24.641-44.634-24.641
			c-29.116,0-52.805,23.688-52.805,52.805c0,3.977,0.444,7.878,1.282,11.659c-3.792-0.853-7.703-1.306-11.685-1.306
			c-14.104,0-27.365,5.493-37.338,15.466s-15.467,23.234-15.467,37.338c0,13.74,5.226,26.67,14.715,36.549H59.915
			c-4.512,0-8.17,3.658-8.17,8.17v81.702c0,4.512,3.658,8.17,8.17,8.17h8.17v203.272c0,4.512,3.658,8.17,8.17,8.17h359.489
			c4.512,0,8.17-3.658,8.17-8.17V275.555h8.17c4.512,0,8.17-3.658,8.17-8.17v-81.702
			C460.255,181.172,456.597,177.514,452.085,177.514z M338.057,115.18c6.887-6.887,16.044-10.679,25.784-10.679
			s18.896,3.792,25.783,10.68s10.68,16.044,10.68,25.784s-3.793,18.896-10.68,25.783c-6.943,6.943-16.087,10.765-25.748,10.765
			h-88.152L338.057,115.18z M264.17,77.808c0-20.106,16.358-36.464,36.464-36.464s36.464,16.358,36.464,36.464
			c0,9.817-3.763,18.987-10.595,25.819L264.17,165.96L264.17,77.808L264.17,77.808z M256.511,376.214c4.512,0,8.17-3.658,8.17-8.17
			v-174.19h32.681v220.804l-36.798-21.027c-2.512-1.435-5.596-1.435-8.107,0l-36.798,21.027V193.854h32.681v174.19
			C248.341,372.556,251.999,376.214,256.511,376.214z M122.375,115.181c6.887-6.887,16.044-10.68,25.783-10.68
			s18.897,3.792,25.784,10.68c3.191,3.191,8.364,3.191,11.554,0c3.191-3.191,3.191-8.364,0-11.554
			c-6.831-6.832-10.595-16.002-10.595-25.819c0.002-20.107,16.359-36.465,36.465-36.465S247.83,57.7,247.83,77.807v88.152
			l-39.227-39.227c-3.191-3.191-8.364-3.191-11.554,0c-3.191,3.191-3.191,8.364,0,11.554l39.227,39.227h-88.152
			c-9.663,0-18.807-3.824-25.749-10.765c-6.887-6.887-10.68-16.044-10.68-25.783C111.695,131.225,115.488,122.068,122.375,115.181z
			 M443.915,259.215H338.213c-4.512,0-8.17,3.658-8.17,8.17s3.658,8.17,8.17,8.17h89.361v195.102H84.426V275.555h90.383
			c4.512,0,8.17-3.658,8.17-8.17s-3.658-8.17-8.17-8.17H68.085v-65.362h131.234v234.883c0,2.912,1.55,5.605,4.069,7.067
			c2.52,1.462,5.625,1.473,8.155,0.027l44.968-25.696l44.968,25.696c1.256,0.718,2.655,1.076,4.054,1.076
			c1.416,0,2.833-0.368,4.102-1.104c2.519-1.462,4.069-4.154,4.069-7.067V193.854h130.213v65.362H443.915z"/>
	</g>
</g>
</svg>
